<svg width="374" height="82" viewBox="0 0 374 82" fill="none" xmlns="http://www.w3.org/2000/svg">
<path d="M1.48478 29.1387C1.17639 20.3075 8.08547 12.8984 16.9166 12.59L355.71 0.759117C364.541 0.450726 371.95 7.35981 372.259 16.191L373.509 51.9787L353.586 68.8747L19.2898 80.5486C10.4586 80.857 3.04956 73.9479 2.74117 65.1168L1.48478 29.1387Z" fill="#17B26A"/>
<path d="M354.125 55.9967C354.274 52.4364 357.475 49.7899 361 50.3128L373.515 52.1691L353.585 68.8748L354.125 55.9967Z" fill="black" fillOpacity="0.5"/>
<path d="M358.386 52.9998C359.417 49.5924 363.17 47.8263 366.452 49.2043L373.515 52.1696L353.586 68.8753L358.386 52.9998Z" fill="white"/>
<path d="M37.7952 58.3944C36.0683 58.4548 34.4838 58.1259 33.0419 57.4077C31.6231 56.6648 30.468 55.5644 29.5766 54.1067C28.7083 52.6241 28.2365 50.8034 28.1611 48.6447L27.95 42.6004C27.8369 39.3624 28.6617 36.8481 30.4243 35.0575C32.186 33.2429 34.6259 32.2811 37.744 32.1723C40.8382 32.0642 43.2536 32.8084 44.9904 34.4047C46.7503 35.9763 47.6792 38.1652 47.7772 40.9715L47.7823 41.1154L43.1051 41.2787L43.0951 40.9909C43.0641 40.1034 42.8441 39.3066 42.4352 38.6005C42.0503 37.8935 41.479 37.3491 40.7212 36.9673C39.9626 36.5615 39.0196 36.3783 37.8923 36.4177C36.2133 36.4763 34.9121 37.0381 33.9887 38.1029C33.0653 39.1678 32.6346 40.5877 32.6966 42.3626L32.9127 48.5508C32.9738 50.3018 33.503 51.7002 34.5001 52.746C35.4963 53.7679 36.858 54.2486 38.5849 54.1883C40.3118 54.128 41.5552 53.6283 42.3149 52.6892C43.0745 51.7502 43.4301 50.585 43.3815 49.1939L43.369 48.8341L37.3966 49.0427L37.2559 45.0131L47.9054 44.6412L48.3552 57.5214L43.9659 57.6747L43.8817 55.2641L43.2341 55.2867C43.0804 55.7004 42.8197 56.1417 42.4518 56.6108C42.1079 57.0791 41.5697 57.4822 40.837 57.8199C40.1044 58.1577 39.0904 58.3492 37.7952 58.3944ZM52.3167 57.383L51.4372 32.1984L55.9705 32.0401L56.8499 57.2247L52.3167 57.383ZM69.6622 57.2816C67.8873 57.3436 66.2797 57.0395 64.8394 56.3694C63.3992 55.6992 62.2474 54.6948 61.3842 53.3561C60.5209 52.0174 60.0558 50.3887 59.9888 48.4699L59.9687 47.8942C59.9017 45.9754 60.2521 44.3181 61.0198 42.9225C61.7876 41.5269 62.8665 40.4445 64.2565 39.6756C65.6465 38.9066 67.229 38.4911 69.0039 38.4291C70.7788 38.3671 72.3864 38.6712 73.8267 39.3414C75.2669 40.0115 76.4187 41.0159 77.2819 42.3546C78.1452 43.6933 78.6103 45.3221 78.6773 47.2409L78.6974 47.8165C78.7644 49.7354 78.414 51.3926 77.6463 52.7883C76.8785 54.1839 75.7996 55.2662 74.4096 56.0352C73.0196 56.8042 71.4371 57.2196 69.6622 57.2816ZM69.5215 53.2521C70.9127 53.2035 72.0485 52.7196 72.9289 51.8003C73.8085 50.857 74.219 49.5459 74.1604 47.8669L74.1478 47.5071C74.0892 45.8282 73.5887 44.5608 72.6462 43.7052C71.7269 42.8248 70.5597 42.4092 69.1446 42.4587C67.7534 42.5072 66.6181 43.0032 65.7384 43.9464C64.858 44.8657 64.4471 46.1649 64.5057 47.8438L64.5183 48.2036C64.5769 49.8826 65.0779 51.1619 66.0211 52.0415C66.9636 52.8971 68.1304 53.3007 69.5215 53.2521ZM93.2028 56.4596C91.5958 56.5157 90.3509 56.283 89.4682 55.7615C88.5855 55.24 87.9285 54.6505 87.4973 53.9932L86.8497 54.0158L86.9251 56.1745L82.4638 56.3303L81.5843 31.1456L86.1176 30.9873L86.4455 40.3776L87.0931 40.355C87.3418 39.914 87.6754 39.4941 88.0937 39.0953C88.5361 38.6956 89.1128 38.3633 89.824 38.0983C90.5583 37.8085 91.4652 37.6448 92.5445 37.6071C93.9836 37.5568 95.3274 37.8701 96.5758 38.5469C97.8233 39.1998 98.8427 40.1968 99.634 41.538C100.425 42.8792 100.855 44.5212 100.923 46.4641L100.943 47.0397C101.011 48.9825 100.697 50.6505 100.001 52.0436C99.3051 53.4368 98.3581 54.5145 97.16 55.2767C95.961 56.015 94.642 56.4093 93.2028 56.4596ZM91.6975 52.5497C93.0886 52.5011 94.2364 52.0168 95.1409 51.0967C96.0445 50.1526 96.4661 48.817 96.4058 47.0901L96.3932 46.7303C96.3329 45.0034 95.8196 43.7125 94.8532 42.8577C93.9099 41.9781 92.7307 41.563 91.3155 41.6124C89.9244 41.661 88.777 42.1573 87.8734 43.1014C86.969 44.0216 86.5469 45.3451 86.6072 47.072L86.6198 47.4318C86.6801 49.1588 87.1939 50.4616 88.1611 51.3404C89.1275 52.1952 90.3063 52.5983 91.6975 52.5497ZM110.245 55.8644C108.974 55.9088 107.827 55.7327 106.805 55.3362C105.782 54.9156 104.956 54.2961 104.327 53.4775C103.721 52.6342 103.397 51.6009 103.354 50.3776C103.311 49.1543 103.563 48.1249 104.11 47.2893C104.681 46.4289 105.475 45.7768 106.492 45.333C107.532 44.8644 108.724 44.6067 110.067 44.5598L114.96 44.3889L114.925 43.3815C114.895 42.542 114.608 41.8677 114.062 41.3584C113.515 40.8252 112.666 40.5787 111.514 40.6189C110.387 40.6582 109.557 40.9514 109.023 41.4983C108.489 42.0213 108.153 42.6934 108.013 43.5148L103.791 42.2574C104.047 41.3359 104.474 40.4925 105.071 39.7272C105.692 38.937 106.522 38.2957 107.562 37.8031C108.624 37.2857 109.923 37.0002 111.458 36.9466C113.809 36.8645 115.688 37.3872 117.096 38.5148C118.504 39.6423 119.247 41.3214 119.325 43.552L119.558 50.208C119.583 50.9276 119.931 51.2756 120.603 51.2522L122.042 51.2019L122.173 54.9436L119.15 55.0492C118.263 55.0801 117.524 54.8898 116.933 54.4782C116.342 54.0666 116.035 53.501 116.009 52.7814L116.008 52.7454L115.325 52.7693C115.239 53.0605 115.036 53.4518 114.717 53.9432C114.397 54.4106 113.884 54.8368 113.177 55.2217C112.47 55.6066 111.493 55.8209 110.245 55.8644ZM110.909 52.167C112.18 52.1226 113.199 51.7388 113.967 51.0156C114.757 50.2676 115.132 49.3059 115.091 48.1306L115.078 47.7708L110.509 47.9304C109.669 47.9597 109.016 48.1626 108.549 48.5392C108.082 48.9157 107.859 49.4278 107.882 50.0754C107.905 50.723 108.175 51.2419 108.693 51.632C109.211 52.0222 109.949 52.2005 110.909 52.167ZM124.768 54.853L123.888 29.6684L128.421 29.51L129.301 54.6947L124.768 54.853ZM151.464 54.425C148.346 54.5339 145.845 53.7567 143.962 52.0934C142.078 50.4062 141.079 47.9435 140.966 44.7055L140.755 38.6612C140.642 35.4231 141.467 32.9088 143.23 31.1182C144.991 29.3036 147.431 28.3419 150.549 28.233C153.643 28.125 156.06 28.8931 157.798 30.5374C159.56 32.1569 160.492 34.4418 160.595 37.392L160.603 37.6079L155.925 37.7712L155.913 37.4114C155.861 35.9243 155.399 34.7157 154.526 33.7856C153.677 32.8547 152.401 32.419 150.698 32.4784C149.019 32.5371 147.717 33.0988 146.794 34.1637C145.871 35.2286 145.44 36.6485 145.502 38.4234L145.718 44.6116C145.779 46.3625 146.308 47.7489 147.304 48.7708C148.3 49.7686 149.637 50.2383 151.316 50.1796C153.019 50.1202 154.261 49.5965 155.043 48.6086C155.848 47.5959 156.225 46.358 156.174 44.8949L156.152 44.2473L160.829 44.0839L160.846 44.5876C160.949 47.5378 160.179 49.8941 158.536 51.6566C156.915 53.3942 154.558 54.317 151.464 54.425ZM170.013 53.7773C168.741 53.8217 167.595 53.6456 166.572 53.2491C165.549 52.8285 164.723 52.209 164.094 51.3904C163.488 50.5471 163.164 49.5137 163.121 48.2905C163.078 47.0672 163.33 46.0378 163.878 45.2022C164.448 44.3418 165.242 43.6897 166.259 43.2459C167.299 42.7773 168.491 42.5196 169.834 42.4727L174.727 42.3018L174.692 41.2944C174.663 40.4549 174.375 39.7805 173.829 39.2713C173.282 38.7381 172.433 38.4915 171.281 38.5317C170.154 38.5711 169.324 38.8643 168.791 39.4112C168.256 39.9342 167.92 40.6063 167.78 41.4277L163.558 40.1703C163.814 39.2488 164.241 38.4054 164.838 37.6401C165.459 36.8499 166.289 36.2086 167.329 35.716C168.391 35.1986 169.69 34.9131 171.225 34.8595C173.576 34.7774 175.455 35.3001 176.863 36.4277C178.272 37.5552 179.015 39.2343 179.092 41.4649L179.325 48.1209C179.35 48.8404 179.698 49.1885 180.37 49.165L181.809 49.1148L181.94 52.8565L178.918 52.962C178.03 52.993 177.291 52.8027 176.7 52.3911C176.11 51.9794 175.802 51.4138 175.777 50.6943L175.775 50.6583L175.092 50.6822C175.006 50.9733 174.803 51.3647 174.484 51.8561C174.164 52.3235 173.651 52.7497 172.944 53.1346C172.237 53.5195 171.26 53.7338 170.013 53.7773ZM170.676 50.0799C171.947 50.0355 172.966 49.6517 173.734 48.9285C174.524 48.1805 174.899 47.2188 174.858 46.0435L174.845 45.6837L170.276 45.8433C169.436 45.8726 168.783 46.0755 168.316 46.4521C167.849 46.8286 167.627 47.3407 167.649 47.9883C167.672 48.6359 167.942 49.1548 168.46 49.5449C168.978 49.9351 169.717 50.1134 170.676 50.0799ZM184.535 52.7659L183.912 34.9208L188.373 34.765L188.443 36.7797L189.091 36.7571C189.329 36.0284 189.743 35.4856 190.331 35.1289C190.943 34.7713 191.656 34.5783 192.472 34.5498L194.63 34.4744L194.771 38.5039L192.541 38.5818C191.389 38.622 190.453 38.9669 189.731 39.6165C189.008 40.2421 188.669 41.1905 188.714 42.4618L189.068 52.6076L184.535 52.7659ZM205.596 52.5347C203.821 52.5967 202.237 52.2798 200.844 51.584C199.474 50.8634 198.381 49.8329 197.566 48.4925C196.774 47.1273 196.345 45.5093 196.28 43.6384L196.265 43.2067C196.2 41.3358 196.515 39.7038 197.211 38.3107C197.906 36.8936 198.912 35.7898 200.229 34.9993C201.545 34.1849 203.091 33.7467 204.866 33.6847C206.617 33.6236 208.154 33.9661 209.476 34.7124C210.798 35.4347 211.844 36.4789 212.612 37.8449C213.379 39.187 213.794 40.7694 213.858 42.5923L213.912 44.1394L200.924 44.5929C201.015 45.8145 201.505 46.794 202.396 47.5314C203.286 48.2687 204.355 48.6157 205.602 48.5721C206.873 48.5277 207.799 48.2192 208.379 47.6466C208.96 47.074 209.394 46.4465 209.682 45.764L213.456 47.5774C213.142 48.2127 212.674 48.9135 212.052 49.6797C211.454 50.421 210.636 51.0739 209.599 51.6385C208.561 52.179 207.227 52.4778 205.596 52.5347ZM200.842 41.2097L209.189 40.9183C209.057 39.8902 208.608 39.0774 207.843 38.4797C207.102 37.8812 206.143 37.6025 204.968 37.6436C203.745 37.6863 202.784 38.032 202.086 38.6808C201.389 39.3295 200.974 40.1725 200.842 41.2097ZM225.641 51.8347C223.866 51.8967 222.282 51.5798 220.889 50.884C219.519 50.1634 218.427 49.1329 217.611 47.7925C216.819 46.4273 216.39 44.8093 216.325 42.9384L216.31 42.5067C216.245 40.6358 216.56 39.0038 217.256 37.6107C217.951 36.1936 218.957 35.0898 220.274 34.2994C221.59 33.4849 223.136 33.0467 224.911 32.9847C226.662 32.9236 228.199 33.2662 229.522 34.0124C230.844 34.7347 231.889 35.7789 232.657 37.1449C233.424 38.487 233.84 40.0694 233.903 41.8923L233.957 43.4394L220.969 43.8929C221.06 45.1145 221.55 46.094 222.441 46.8314C223.331 47.5688 224.4 47.9157 225.647 47.8721C226.918 47.8277 227.844 47.5192 228.424 46.9466C229.005 46.374 229.439 45.7465 229.727 45.064L233.501 46.8774C233.187 47.5127 232.719 48.2135 232.098 48.9797C231.499 49.721 230.681 50.3739 229.644 50.9385C228.607 51.479 227.272 51.7778 225.641 51.8347ZM220.887 40.5097L229.234 40.2183C229.102 39.1902 228.653 38.3774 227.888 37.7797C227.147 37.1813 226.188 36.9025 225.013 36.9436C223.79 36.9863 222.829 37.332 222.132 37.9808C221.434 38.6295 221.019 39.4725 220.887 40.5097ZM237.538 50.915L236.915 33.0699L241.376 32.9141L241.446 34.9288L242.094 34.9062C242.332 34.1774 242.746 33.6347 243.334 33.278C243.946 32.9204 244.659 32.7274 245.475 32.6989L247.633 32.6235L247.774 36.653L245.544 36.7309C244.392 36.7711 243.456 37.116 242.734 37.7656C242.011 38.3912 241.672 39.3396 241.717 40.6109L242.071 50.7567L237.538 50.915ZM259.354 50.1531L258.475 24.9685L268.837 24.6066C270.42 24.5514 271.822 24.8266 273.044 25.4323C274.289 26.0132 275.268 26.8676 275.979 27.9954C276.715 29.1224 277.111 30.4775 277.166 32.0605L277.183 32.5642C277.238 34.1232 276.926 35.503 276.247 36.7034C275.592 37.879 274.664 38.8119 273.463 39.5022C272.286 40.1677 270.93 40.5273 269.395 40.5809L263.782 40.7769L264.104 49.9873L259.354 50.1531ZM263.631 36.4595L268.776 36.2799C269.903 36.2405 270.804 35.8969 271.478 35.2489C272.152 34.601 272.47 33.7374 272.432 32.6581L272.419 32.2983C272.382 31.2189 272.004 30.3796 271.287 29.7803C270.569 29.181 269.647 28.901 268.52 28.9403L263.375 29.12L263.631 36.4595ZM280.492 49.415L279.613 24.2303L284.146 24.072L285.025 49.2567L280.492 49.415ZM294.888 49.4166C293.616 49.461 292.469 49.2849 291.447 48.8883C290.424 48.4678 289.598 47.8483 288.969 47.0297C288.363 46.1863 288.039 45.153 287.996 43.9298C287.953 42.7065 288.205 41.6771 288.752 40.8415C289.323 39.981 290.117 39.3289 291.134 38.8852C292.174 38.4166 293.366 38.1588 294.709 38.1119L299.602 37.9411L299.567 36.9337C299.537 36.0942 299.25 35.4198 298.704 34.9106C298.157 34.3773 297.308 34.1308 296.156 34.171C295.029 34.2104 294.199 34.5035 293.665 35.0505C293.131 35.5734 292.795 36.2456 292.655 37.067L288.433 35.8096C288.689 34.8881 289.116 34.0447 289.713 33.2793C290.334 32.4892 291.164 31.8478 292.204 31.3553C293.266 30.8379 294.565 30.5524 296.1 30.4987C298.451 30.4167 300.33 30.9394 301.738 32.0669C303.146 33.1945 303.889 34.8736 303.967 37.1042L304.2 43.7601C304.225 44.4797 304.573 44.8278 305.245 44.8043L306.684 44.7541L306.815 48.4958L303.792 48.6013C302.905 48.6323 302.166 48.442 301.575 48.0303C300.984 47.6187 300.677 47.0531 300.651 46.3336L300.65 46.2976L299.967 46.3214C299.881 46.6126 299.678 47.0039 299.359 47.4954C299.039 47.9628 298.526 48.389 297.819 48.7739C297.112 49.1588 296.135 49.373 294.888 49.4166ZM295.551 45.7192C296.822 45.6748 297.841 45.291 298.609 44.5678C299.399 43.8197 299.774 42.8581 299.733 41.6828L299.72 41.323L295.151 41.4826C294.311 41.5119 293.658 41.7148 293.191 42.0913C292.724 42.4679 292.501 42.9799 292.524 43.6275C292.547 44.2752 292.817 44.794 293.335 45.1842C293.853 45.5744 294.591 45.7527 295.551 45.7192ZM309.41 48.4052L308.786 30.56L313.248 30.4042L313.329 32.7428L313.977 32.7202C314.243 32.0865 314.762 31.48 315.534 30.9007C316.306 30.2975 317.495 29.9678 319.102 29.9116C320.493 29.8631 321.716 30.1446 322.77 30.7561C323.847 31.3429 324.693 32.1899 325.308 33.2971C325.922 34.3803 326.255 35.6655 326.307 37.1526L326.679 47.8021L322.146 47.9604L321.786 37.6707C321.74 36.3275 321.369 35.3318 320.674 34.6837C320.002 34.0347 319.055 33.7316 317.832 33.7743C316.441 33.8229 315.378 34.3283 314.643 35.2905C313.907 36.2288 313.568 37.5254 313.626 39.1804L313.943 48.2469L309.41 48.4052ZM335.572 39.2065L335.542 38.343C335.499 37.1198 335.704 36.104 336.156 35.2957C336.632 34.4866 337.412 33.799 338.497 33.2328L339.099 32.9236C340.161 32.3822 340.969 31.8136 341.525 31.2179C342.08 30.6221 342.341 29.8445 342.308 28.8851C342.284 28.1896 342.083 27.6082 341.707 27.1411C341.353 26.6491 340.86 26.2821 340.227 26.04C339.595 25.7979 338.858 25.6916 338.019 25.7209C337.155 25.751 336.381 25.9222 335.695 26.2343C335.034 26.5456 334.509 26.9962 334.122 27.586C333.758 28.1751 333.591 28.9014 333.621 29.7648L333.649 30.5563L328.972 30.7197L328.947 30.0001C328.889 28.3451 329.247 26.9037 330.02 25.676C330.794 24.4483 331.866 23.4983 333.235 22.8261C334.603 22.1299 336.151 21.7517 337.878 21.6913C339.581 21.6319 341.103 21.8909 342.444 22.4685C343.809 23.0452 344.895 23.8718 345.701 24.9483C346.507 26.0249 346.935 27.2827 346.985 28.7218C347.035 30.1609 346.813 31.3574 346.318 32.3113C345.822 33.2411 345.176 34.0081 344.381 34.6123C343.609 35.1916 342.81 35.6998 341.985 36.1368L341.383 36.446C340.958 36.653 340.667 36.9033 340.509 37.197C340.35 37.4667 340.28 37.8654 340.299 38.3931L340.321 39.0407L335.572 39.2065ZM338.397 47.8972C337.438 47.9307 336.611 47.6474 335.918 47.0472C335.248 46.4222 334.895 45.606 334.86 44.5986C334.825 43.5913 335.12 42.7644 335.746 42.1182C336.395 41.4472 337.199 41.0949 338.158 41.0614C339.142 41.027 339.969 41.3224 340.639 41.9473C341.308 42.5483 341.66 43.3525 341.696 44.3599C341.731 45.3673 341.436 46.2061 340.811 46.8763C340.185 47.5226 339.38 47.8629 338.397 47.8972Z" fill="white"/>
</svg>
