<svg width="1440" height="934" viewBox="0 0 1440 934" fill="none" xmlns="http://www.w3.org/2000/svg">
<path d="M1747.85 -279.587C1752.65 -254.546 1747.24 -230.543 1741.05 -204.092C1714.1 -88.9281 1667.04 24.888 1601.04 130.908C1462.47 353.494 1253.59 547.826 983.406 608.215C828.956 642.737 631.983 633.698 538.894 520.288C486.03 455.885 490.034 370.731 518.109 287.531C548.194 198.369 602.581 109.411 677.131 40.7179C734.784 -12.405 848.286 -82.3785 901.874 -7.62204C931.597 33.8426 929.777 90.3652 918.687 141.717C895.581 248.692 827.488 345.042 743.549 427.267C597.64 570.195 405.379 660.621 206.804 661.198C131.35 661.423 -39.1962 630.889 -114.137 593.418" stroke="url(#paint0_linear_20807_12494)" stroke-opacity="0.1" stroke-width="100" stroke-linecap="round" stroke-linejoin="round"/>
<defs>
<linearGradient id="paint0_linear_20807_12494" x1="725.762" y1="1.6119" x2="725.762" y2="745.359" gradientUnits="userSpaceOnUse">
<stop stop-color="white" stop-opacity="0"/>
<stop offset="1" stop-color="white"/>
</linearGradient>
</defs>
</svg>
